<svg
            width="23"
            height="23"
            viewport="0 0 20 20"
            viewBox="-8 -8 22 22"
            fill="none"
            xmlns="http://www.w3.org/2000/svg"
          >
            <path
              fill-rule="evenodd"
              clip-rule="evenodd"
              d="M6.70615 0.0161133C3.22152 0.0161133 0.418091 2.81954 0.418091 6.30417C0.418091 9.08139 2.22591 11.4394 4.71493 12.2778C5.02933 12.3302 5.13413 12.1468 5.13413 11.9634C5.13413 11.8062 5.13413 11.4132 5.13413 10.8892C3.37872 11.2822 3.01191 10.0508 3.01191 10.0508C2.72371 9.3172 2.30451 9.13379 2.30451 9.13379C1.7281 8.74079 2.35691 8.74079 2.35691 8.74079C2.98571 8.79319 3.32632 9.3958 3.32632 9.3958C3.87652 10.3652 4.79353 10.077 5.16033 9.9198C5.21273 9.5006 5.36994 9.2386 5.55334 9.08139C4.16472 8.92419 2.69751 8.37399 2.69751 5.96357C2.69751 5.28236 2.93331 4.70595 3.35252 4.28675C3.30012 4.12955 3.06431 3.50074 3.40492 2.60994C3.40492 2.60994 3.92892 2.45273 5.13413 3.26494C5.63194 3.13394 6.18214 3.05534 6.70615 3.05534C7.23015 3.05534 7.78036 3.13394 8.27816 3.26494C9.48337 2.45273 10.0074 2.60994 10.0074 2.60994C10.348 3.47454 10.1384 4.10335 10.0598 4.28675C10.4528 4.73215 10.7148 5.28236 10.7148 5.96357C10.7148 8.37399 9.24757 8.89799 7.83276 9.05519C8.06856 9.2386 8.25196 9.6316 8.25196 10.208C8.25196 11.0464 8.25196 11.7276 8.25196 11.9372C8.25196 12.0944 8.35676 12.304 8.69737 12.2516C11.1864 11.4394 12.9942 9.08139 12.9942 6.30417C12.9942 2.81954 10.1908 0.0161133 6.70615 0.0161133Z"
              fill="white"
            />
          </svg>