<svg
            width="22"
            height="23"
            viewport="0 0 20 20"
            viewBox="-8 -8 22 22"
            fill="none"
            xmlns="http://www.w3.org/2000/svg"
          >
            <path
              d="M6.92929 1.20062C8.68445 1.20062 8.89231 1.20719 9.58567 1.23881C10.0026 1.24391 10.4155 1.32046 10.8065 1.46513C11.09 1.57449 11.3476 1.742 11.5625 1.9569C11.7774 2.1718 11.9449 2.42932 12.0542 2.71287C12.1989 3.10388 12.2754 3.51681 12.2806 3.93369C12.3119 4.62705 12.3187 4.83491 12.3187 6.59007C12.3187 8.34523 12.3122 8.55308 12.2806 9.24645C12.2754 9.66333 12.1989 10.0763 12.0542 10.4673C11.9449 10.7508 11.7774 11.0083 11.5625 11.2232C11.3476 11.4381 11.09 11.6056 10.8065 11.715C10.4155 11.8597 10.0026 11.9362 9.58567 11.9413C8.89262 11.9726 8.68477 11.9795 6.92929 11.9795C5.17382 11.9795 4.96597 11.9729 4.27292 11.9413C3.85603 11.9362 3.44311 11.8597 3.0521 11.715C2.76854 11.6056 2.51103 11.4381 2.29613 11.2232C2.08123 11.0083 1.91371 10.7508 1.80436 10.4673C1.65969 10.0763 1.58314 9.66333 1.57804 9.24645C1.54673 8.55308 1.53985 8.34523 1.53985 6.59007C1.53985 4.83491 1.54642 4.62705 1.57804 3.93369C1.58314 3.51681 1.65969 3.10388 1.80436 2.71287C1.91371 2.42932 2.08123 2.1718 2.29613 1.9569C2.51103 1.742 2.76854 1.57449 3.0521 1.46513C3.44311 1.32046 3.85603 1.24391 4.27292 1.23881C4.96628 1.20751 5.17413 1.20062 6.92929 1.20062ZM6.92929 0.0161133C5.14502 0.0161133 4.92026 0.023626 4.21907 0.0555551C3.67348 0.0664072 3.13367 0.169711 2.62262 0.361073C2.18422 0.526249 1.78714 0.785093 1.45908 1.11955C1.12433 1.44772 0.865264 1.84503 0.699985 2.28371C0.508624 2.79476 0.40532 3.33457 0.394468 3.88016C0.363165 4.58073 0.355652 4.80548 0.355652 6.58976C0.355652 8.37403 0.363165 8.59879 0.395094 9.29997C0.405946 9.84557 0.50925 10.3854 0.700612 10.8964C0.865706 11.3351 1.12456 11.7324 1.45908 12.0606C1.78732 12.3951 2.18462 12.654 2.62325 12.8191C3.1343 13.0104 3.6741 13.1137 4.2197 13.1246C4.92089 13.1559 5.14471 13.164 6.92992 13.164C8.71513 13.164 8.93895 13.1565 9.64014 13.1246C10.1857 13.1137 10.7255 13.0104 11.2366 12.8191C11.6731 12.6498 12.0696 12.3914 12.4005 12.0602C12.7315 11.7291 12.9897 11.3325 13.1586 10.8958C13.35 10.3848 13.4533 9.84494 13.4641 9.29935C13.4954 8.59879 13.5029 8.37403 13.5029 6.58976C13.5029 4.80548 13.4954 4.58073 13.4635 3.87954C13.4526 3.33394 13.3493 2.79413 13.158 2.28308C12.9929 1.84446 12.734 1.44715 12.3995 1.11892C12.0713 0.784391 11.674 0.525542 11.2353 0.360447C10.7243 0.169085 10.1845 0.0657812 9.63888 0.0549291C8.93832 0.023626 8.71357 0.0161133 6.92929 0.0161133Z"
              fill="white"
            />
            <path
              d="M6.9276 3.21777C6.25995 3.21777 5.60729 3.41576 5.05215 3.78669C4.49702 4.15761 4.06434 4.68483 3.80884 5.30166C3.55334 5.91849 3.48649 6.59724 3.61674 7.25206C3.747 7.90689 4.0685 8.50839 4.54061 8.98049C5.01271 9.45259 5.61421 9.7741 6.26903 9.90435C6.92386 10.0346 7.6026 9.96775 8.21944 9.71225C8.83627 9.45675 9.36348 9.02408 9.73441 8.46895C10.1053 7.91381 10.3033 7.26115 10.3033 6.59349C10.3033 5.6982 9.94767 4.83957 9.3146 4.2065C8.68153 3.57343 7.8229 3.21777 6.9276 3.21777ZM6.9276 8.78471C6.49422 8.78471 6.07057 8.6562 5.71023 8.41542C5.34989 8.17465 5.06903 7.83243 4.90319 7.43204C4.73734 7.03164 4.69394 6.59106 4.77849 6.16601C4.86304 5.74096 5.07173 5.35052 5.37818 5.04407C5.68463 4.73763 6.07506 4.52893 6.50012 4.44438C6.92517 4.35984 7.36575 4.40323 7.76614 4.56908C8.16654 4.73492 8.50876 5.01578 8.74953 5.37612C8.9903 5.73646 9.11882 6.16011 9.11882 6.59349C9.11882 7.17464 8.88796 7.73198 8.47703 8.14292C8.06609 8.55385 7.50875 8.78471 6.9276 8.78471Z"
              fill="white"
            />
            <path
              d="M10.4481 3.87113C10.8838 3.87113 11.237 3.51796 11.237 3.08229C11.237 2.64663 10.8838 2.29346 10.4481 2.29346C10.0125 2.29346 9.6593 2.64663 9.6593 3.08229C9.6593 3.51796 10.0125 3.87113 10.4481 3.87113Z"
              fill="white"
            />
          </svg>