      <svg
        width="57"
        height="55"
        viewBox="0 0 57 55"
        fill="none"
        xmlns="http://www.w3.org/2000/svg"
      >
        <g clip-path="url(#clip0_1_709)">
          <path
            d="M48.1695 0.803952C47.8609 0.62592 47.4931 0.57519 47.1466 0.662861C46.8 0.750533 46.5029 0.969467 46.3203 1.27175L36.6489 17.3632C36.5993 17.4466 36.5593 17.5352 36.5295 17.6273C35.4474 18.0213 34.4374 18.5849 33.5387 19.296C30.6083 14.4065 25.2391 11.3277 19.3732 11.3277C10.3221 11.3277 2.95967 18.5484 2.93444 27.4318H0.800903L0.991673 28.9241C2.10183 37.5971 7.54798 45.1726 15.3787 49.1616V54.2827H35.5843C38.1455 54.2827 40.2292 52.2344 40.2292 49.7183V49.1623C48.0624 45.1714 53.5061 37.5959 54.6187 28.9241L54.8095 27.4306H50.9566C50.9387 22.8964 47.9781 19.0416 43.86 17.5862L55.9264 6.18186C56.4631 5.67478 56.4803 4.83467 55.9621 4.30763C55.8394 4.18216 55.6926 4.08167 55.5303 4.0119C55.368 3.94214 55.1932 3.90447 55.0161 3.90104C54.8389 3.89762 54.6628 3.92851 54.4978 3.99195C54.3328 4.05539 54.1821 4.15013 54.0544 4.27077L40.6132 16.9764C40.4926 16.9715 40.3726 16.9582 40.2501 16.9582C40.1726 16.9582 40.0981 16.9691 40.0218 16.9703L48.6458 2.62016C48.736 2.47019 48.7952 2.30425 48.8201 2.13181C48.8449 1.95937 48.8349 1.78381 48.7907 1.61516C48.7465 1.4465 48.6689 1.28806 48.5623 1.14887C48.4557 1.00968 48.3222 0.892478 48.1695 0.803952ZM19.3726 13.9804C24.54 13.9804 29.2501 16.8374 31.5929 21.3135C30.7388 22.4673 30.1332 23.78 29.8132 25.1714C28.7394 20.4764 24.4698 16.957 19.3726 16.957C13.4852 16.957 8.69567 21.652 8.67044 27.4312H5.63537C5.65998 20.011 11.8114 13.9804 19.3726 13.9804ZM19.3726 22.5936C16.6464 22.5936 14.428 24.7604 14.4027 27.4312H11.372C11.3972 23.1146 14.9744 19.6103 19.3726 19.6103C23.772 19.6103 27.3529 23.1146 27.3757 27.4312H24.3412C24.3172 24.7604 22.0987 22.5936 19.3726 22.5936ZM21.6384 27.4318H17.1067C17.1188 26.8488 17.3628 26.2936 17.7866 25.8851C18.2103 25.4766 18.7801 25.2473 19.3738 25.2463C19.9673 25.2475 20.5367 25.4769 20.96 25.8854C21.3833 26.2939 21.6269 26.8491 21.6384 27.4318ZM51.6975 30.0845C50.1966 37.793 44.8741 44.3646 37.4975 47.5123H33.1744V50.1656H37.4686C37.3675 50.5819 37.1267 50.9526 36.7851 51.2183C36.4434 51.4839 36.0207 51.6289 35.5849 51.63H18.0803V50.1656H23.1443V47.5123H18.1129C10.7363 44.3664 5.41321 37.793 3.91106 30.0845H51.6975ZM37.9849 27.4318C37.9968 26.849 38.2405 26.294 38.6639 25.8855C39.0873 25.4771 39.6567 25.2476 40.2501 25.2463C40.8441 25.2468 41.4143 25.4759 41.8383 25.8845C42.2624 26.293 42.5065 26.8485 42.5184 27.4318H37.9849ZM40.2501 19.6109C44.6514 19.6109 48.2335 23.1152 48.2569 27.4318H45.2206C45.196 24.761 42.9769 22.5942 40.2501 22.5942C37.524 22.5942 35.3074 24.761 35.2827 27.4318H32.2495C32.2741 23.1152 35.8514 19.6109 40.2501 19.6109Z"
            fill="#AD343E"
          />
          <path
            d="M39.6742 42.9139C39.8902 42.9139 40.1086 42.8637 40.3098 42.7568C41.9592 41.8897 43.4066 40.6947 44.5599 39.248C45.7131 37.8012 46.547 36.1345 47.0083 34.3539C47.0525 34.1848 47.0623 34.0088 47.0371 33.8361C47.0119 33.6633 46.9522 33.4971 46.8615 33.347C46.7708 33.1969 46.6507 33.0659 46.5083 32.9615C46.3659 32.8571 46.204 32.7813 46.0317 32.7385C45.8594 32.6957 45.6802 32.6867 45.5043 32.7121C45.3285 32.7374 45.1595 32.7967 45.007 32.8863C44.8546 32.976 44.7216 33.0943 44.6158 33.2346C44.51 33.3748 44.4334 33.5342 44.3905 33.7035C44.0222 35.1266 43.3561 36.4588 42.4346 37.6151C41.5131 38.7714 40.3565 39.7265 39.0385 40.4196C38.7727 40.5585 38.5618 40.7808 38.4396 41.051C38.3173 41.3213 38.2906 41.6239 38.3637 41.9108C38.4368 42.1976 38.6055 42.4522 38.843 42.634C39.0805 42.8158 39.3731 42.9143 39.6742 42.9139Z"
            fill="#474747"
          />
          <path
            d="M36.4059 45.0064C37.2902 45.0064 38.0071 44.3023 38.0071 43.4337C38.0071 42.5652 37.2902 41.8611 36.4059 41.8611C35.5215 41.8611 34.8046 42.5652 34.8046 43.4337C34.8046 44.3023 35.5215 45.0064 36.4059 45.0064Z"
            fill="#474747"
          />
        </g>
        <defs>
          <clipPath id="clip0_1_709">
            <rect
              width="56"
              height="55"
              fill="white"
              transform="translate(0.5)"
            />
          </clipPath>
        </defs>
      </svg>