<svg
        width="333"
        height="41"
        viewBox="0 0 333 41"
        fill="none"
        xmlns="http://www.w3.org/2000/svg"
      >
        <path
          d="M25.392 37.2133L14.8533 12.04C14.8533 12.04 14.8249 12.0116 14.768 11.9547C14.7395 11.8693 14.6969 11.784 14.64 11.6987C14.5831 11.5849 14.5404 11.4996 14.512 11.4427C14.4835 11.3573 14.4693 11.3147 14.4693 11.3147C14.6969 10.2622 14.768 9.49422 14.6826 9.01067C14.6258 8.49866 14.3413 8.15733 13.8293 7.98667C13.3458 7.78755 12.5493 7.67378 11.44 7.64533L11.6533 6.792C12.1084 6.82044 12.6631 6.84889 13.3173 6.87733C14 6.90578 14.7111 6.92 15.4506 6.92C16.7875 6.92 17.9395 6.87733 18.9066 6.792L27.6106 28.6373C27.6106 28.6373 27.5822 28.8507 27.5253 29.2773C27.4684 29.6756 27.3831 30.2018 27.2693 30.856C27.184 31.4818 27.0844 32.1644 26.9706 32.904C26.8569 33.6436 26.7431 34.3404 26.6293 34.9947C26.544 35.6489 26.4729 36.1893 26.416 36.616C26.3591 37.0142 26.3306 37.2133 26.3306 37.2133H25.392ZM38.448 5.64C37.68 5.66844 36.9973 5.896 36.4 6.32266C35.8311 6.72089 35.3333 7.24711 34.9066 7.90133C33.5982 9.83555 32.2613 13.2347 30.896 18.0987C29.5306 22.9627 28.0089 29.3342 26.3306 37.2133L25.7333 36.0187C26.16 34.1129 26.6151 32.0649 27.0986 29.8747C27.5822 27.656 28.0942 25.4373 28.6346 23.2187C29.2035 21 29.7724 18.8809 30.3413 16.8613C30.9386 14.8418 31.5502 13.0356 32.176 11.4427C32.8302 9.82133 33.4844 8.52711 34.1386 7.56C34.6791 6.792 35.3191 6.152 36.0586 5.64C36.7982 5.09955 37.6942 4.82933 38.7466 4.82933C39.9413 4.82933 40.8231 5.14222 41.392 5.768C41.9609 6.36533 42.2453 7.09066 42.2453 7.944C42.2453 8.93955 41.9324 9.80711 41.3066 10.5467C40.6809 11.2578 39.856 11.6133 38.832 11.6133C38.0071 11.6133 37.3813 11.3858 36.9546 10.9307C36.5564 10.4756 36.3573 9.94933 36.3573 9.352C36.3573 8.52711 36.5991 7.80177 37.0826 7.176C37.5946 6.55022 38.2204 6.09511 38.96 5.81067C38.8746 5.75378 38.7893 5.71111 38.704 5.68266C38.6471 5.65422 38.5618 5.64 38.448 5.64ZM3.84531 39.3467C4.64176 39.3182 5.32442 39.0907 5.89331 38.664C6.49065 38.2658 7.01687 37.7253 7.47198 37.0427C8.29687 35.7342 9.12176 33.6862 9.94665 30.8987C10.8 28.1111 11.6533 24.7404 12.5066 20.7867C13.3884 16.8329 14.2702 12.4951 15.152 7.77333L15.8773 8.66933C15.4222 11.0018 14.9386 13.3769 14.4266 15.7947C13.9431 18.184 13.4453 20.5307 12.9333 22.8347C12.4213 25.1102 11.8951 27.2293 11.3546 29.192C10.8142 31.1547 10.2738 32.8613 9.73331 34.312C9.19287 35.7342 8.66665 36.7867 8.15465 37.4693C7.64265 38.152 7.03109 38.7636 6.31998 39.304C5.63731 39.8729 4.72709 40.1573 3.58931 40.1573C2.3662 40.1573 1.4702 39.8444 0.901313 39.2187C0.332424 38.6213 0.0479793 37.8818 0.0479793 37C0.0479793 36.0329 0.360868 35.1938 0.986646 34.4827C1.61242 33.7431 2.43731 33.3733 3.46131 33.3733C4.31465 33.3733 4.94042 33.6009 5.33865 34.056C5.73687 34.5111 5.93598 35.0373 5.93598 35.6347C5.93598 36.4596 5.67998 37.1849 5.16798 37.8107C4.68442 38.4364 4.08709 38.8916 3.37598 39.176C3.43287 39.2329 3.50398 39.2756 3.58931 39.304C3.67465 39.3324 3.75998 39.3467 3.84531 39.3467ZM70.4603 0.946664C71.3705 0.946664 72.0674 1.21689 72.551 1.75733C73.0345 2.29778 73.2763 2.93778 73.2763 3.67733C73.2763 4.47378 73.0345 5.18489 72.551 5.81067C72.0959 6.43644 71.4559 6.94844 70.631 7.34666C69.8345 7.77333 68.8532 8.10044 67.687 8.328C66.5208 8.55555 65.1696 8.66933 63.6336 8.66933C62.5528 8.66933 61.415 8.61244 60.2203 8.49866C59.0256 8.38489 57.8168 8.25689 56.5936 8.11466C55.3705 7.97244 54.1616 7.84444 52.967 7.73066C51.7723 7.61689 50.6488 7.56 49.5963 7.56C48.6576 7.56 47.7474 7.61689 46.8656 7.73066C45.9839 7.816 45.287 8.00089 44.775 8.28533C45.3439 8.51289 45.8132 8.91111 46.183 9.48C46.5812 10.0489 46.7803 10.7031 46.7803 11.4427C46.7803 12.2676 46.5101 13.0071 45.9696 13.6613C45.4576 14.2871 44.7465 14.6 43.8363 14.6C42.983 14.6 42.3288 14.3156 41.8736 13.7467C41.4185 13.1778 41.191 12.4951 41.191 11.6987C41.191 11.0444 41.3616 10.3618 41.703 9.65066C42.0728 8.91111 42.7696 8.28533 43.7936 7.77333C44.4479 7.46044 45.1448 7.23289 45.8843 7.09066C46.6239 6.94844 47.3208 6.86311 47.975 6.83467C48.6292 6.80622 49.1412 6.792 49.511 6.792C51.2461 6.792 52.9243 6.87733 54.5456 7.048C56.167 7.21866 57.7599 7.38933 59.3243 7.56C60.8888 7.73066 62.439 7.816 63.975 7.816C65.1696 7.816 66.1652 7.75911 66.9616 7.64533C67.7865 7.50311 68.5119 7.28978 69.1376 7.00533L69.0523 7.34666C68.6825 7.00533 68.327 6.56444 67.9856 6.024C67.6728 5.45511 67.5163 4.80089 67.5163 4.06133C67.5163 3.208 67.7723 2.48266 68.2843 1.88533C68.8248 1.25955 69.5501 0.946664 70.4603 0.946664ZM54.9296 7.60267C54.9296 7.60267 55.1145 7.61689 55.4843 7.64533C55.8825 7.67378 56.3661 7.71644 56.935 7.77333C57.5039 7.83022 58.0728 7.88711 58.6416 7.944C59.2105 8.00089 59.6799 8.04355 60.0496 8.072C60.4194 8.10044 60.6043 8.11466 60.6043 8.11466L54.2896 32.0507C54.0052 33.1031 53.8914 33.9138 53.9483 34.4827C54.0336 35.0516 54.3465 35.464 54.887 35.72C55.4559 35.9476 56.3234 36.0898 57.4896 36.1467L57.319 37C56.4656 36.9431 55.3705 36.9147 54.0336 36.9147C52.7252 36.8862 51.3599 36.872 49.9376 36.872C48.5439 36.872 47.207 36.8862 45.927 36.9147C44.647 36.9147 43.623 36.9431 42.855 37L43.0256 36.1467C44.2203 36.0898 45.1448 35.9476 45.799 35.72C46.4816 35.464 47.0079 35.0516 47.3776 34.4827C47.7759 33.8853 48.1314 33.0747 48.4443 32.0507L54.9296 7.60267ZM92.8806 13.1067C93.2504 11.7129 93.4211 10.6462 93.3926 9.90666C93.3642 9.16711 93.094 8.62666 92.582 8.28533C92.0984 7.944 91.302 7.73066 90.1926 7.64533L90.4486 6.792C90.9606 6.82044 91.6433 6.84889 92.4966 6.87733C93.3784 6.90578 94.1891 6.92 94.9286 6.92C95.6398 6.92 96.3366 6.90578 97.0193 6.87733C97.702 6.84889 98.2851 6.82044 98.7686 6.792L98.5126 7.64533C97.574 7.73066 96.8202 7.944 96.2513 8.28533C95.7109 8.59822 95.2558 9.11022 94.886 9.82133C94.5446 10.504 94.2175 11.4853 93.9046 12.7653L90.8326 24.584C89.8086 28.5093 88.4149 31.5244 86.6513 33.6293C85.6273 34.824 84.3473 35.7911 82.8113 36.5307C81.3038 37.2418 79.6682 37.5973 77.9046 37.5973C76.0558 37.5973 74.4771 37.3413 73.1686 36.8293C71.8886 36.2889 70.8931 35.5493 70.182 34.6107C69.3571 33.4729 68.9446 32.136 68.9446 30.6C68.9446 29.0356 69.2575 27.0729 69.8833 24.712L73.4246 11.3147C73.7091 10.2622 73.8229 9.49422 73.766 9.01067C73.7091 8.49866 73.4531 8.15733 72.998 7.98667C72.5713 7.78755 71.8744 7.67378 70.9073 7.64533L71.1633 6.792C71.846 6.82044 72.7704 6.84889 73.9366 6.87733C75.1313 6.90578 76.3829 6.92 77.6913 6.92C78.8575 6.92 79.9811 6.90578 81.062 6.87733C82.1429 6.84889 83.0815 6.82044 83.878 6.792L83.622 7.64533C82.6549 7.67378 81.9011 7.78755 81.3606 7.98667C80.8202 8.15733 80.3935 8.49866 80.0806 9.01067C79.7962 9.49422 79.5118 10.2622 79.2273 11.3147L75.4726 25.4373C75.046 27.0871 74.7473 28.5804 74.5766 29.9173C74.4344 31.2258 74.4629 32.3493 74.662 33.288C74.8895 34.1982 75.3304 34.8951 75.9846 35.3787C76.6389 35.8622 77.5491 36.104 78.7153 36.104C80.8486 36.104 82.6264 35.6347 84.0486 34.696C85.4709 33.7289 86.6371 32.4062 87.5473 30.728C88.4575 29.0498 89.1829 27.1582 89.7233 25.0533L92.8806 13.1067ZM96.4503 30.6C95.5116 31.9369 94.9854 33.0036 94.8716 33.8C94.7863 34.5964 95.0423 35.1796 95.6396 35.5493C96.2654 35.8907 97.1472 36.0898 98.285 36.1467L98.1143 37C97.0334 36.9431 96.0521 36.9147 95.1703 36.9147C94.317 36.8862 93.5063 36.872 92.7383 36.872C92.0841 36.872 91.5294 36.8862 91.0743 36.9147C90.6192 36.9147 90.1641 36.9431 89.709 37L89.9223 36.1467C90.3774 36.0329 90.8325 35.8338 91.2876 35.5493C91.7428 35.2364 92.2405 34.7956 92.781 34.2267C93.293 33.6293 93.8903 32.8471 94.573 31.88L112.578 6.57866C112.834 6.60711 113.105 6.62133 113.389 6.62133C113.702 6.62133 113.986 6.60711 114.242 6.57866L115.949 33.416C116.034 34.44 116.29 35.1511 116.717 35.5493C117.172 35.9191 117.613 36.1182 118.04 36.1467L117.869 37C117.186 36.9431 116.305 36.9147 115.224 36.9147C114.171 36.8862 113.161 36.872 112.194 36.872C111 36.872 109.862 36.8862 108.781 36.9147C107.7 36.9147 106.847 36.9431 106.221 37L106.392 36.1467C107.757 36.0898 108.724 35.848 109.293 35.4213C109.862 34.9662 110.118 34.0133 110.061 32.5627L108.952 12.424L110.061 11.4L96.4503 30.6ZM100.248 24.712H112.706L112.365 25.5653H99.4796L100.248 24.712ZM139.871 32.4773C139.615 33.5013 139.501 34.2693 139.529 34.7813C139.558 35.2933 139.8 35.6347 140.255 35.8053C140.71 35.976 141.421 36.0898 142.388 36.1467L142.217 37C141.478 36.9431 140.539 36.9147 139.401 36.9147C138.264 36.8862 137.112 36.872 135.945 36.872C134.637 36.872 133.414 36.8862 132.276 36.9147C131.167 36.9147 130.242 36.9431 129.503 37L129.716 36.1467C130.655 36.0898 131.38 35.976 131.892 35.8053C132.432 35.6347 132.859 35.2933 133.172 34.7813C133.485 34.2693 133.769 33.5013 134.025 32.4773L139.657 11.3147C139.942 10.2622 140.056 9.49422 139.999 9.01067C139.942 8.49866 139.686 8.15733 139.231 7.98667C138.804 7.78755 138.107 7.67378 137.14 7.64533L137.353 6.792C138.036 6.82044 138.946 6.84889 140.084 6.87733C141.25 6.90578 142.488 6.92 143.796 6.92C144.962 6.92 146.1 6.90578 147.209 6.87733C148.347 6.84889 149.314 6.82044 150.111 6.792L149.897 7.64533C148.93 7.67378 148.176 7.78755 147.636 7.98667C147.096 8.15733 146.669 8.49866 146.356 9.01067C146.072 9.49422 145.787 10.2622 145.503 11.3147L139.871 32.4773ZM154.975 34.7387C155.572 34.7387 156.07 34.5111 156.468 34.056C156.895 33.5724 157.264 32.8613 157.577 31.9227L158.303 29.7467H159.156L158.047 33.032C157.506 34.5964 156.752 35.7484 155.785 36.488C154.847 37.2276 153.752 37.5973 152.5 37.5973C150.85 37.5973 149.656 37.128 148.916 36.1893C148.176 35.2507 147.892 33.9707 148.063 32.3493L148.745 26.76C148.859 25.5938 148.873 24.6836 148.788 24.0293C148.703 23.3467 148.532 22.8204 148.276 22.4507C148.02 22.0524 147.65 21.7111 147.167 21.4267L147.252 21C148.589 21.1138 149.712 21.2987 150.623 21.5547C151.561 21.8107 152.315 22.2089 152.884 22.7493C153.453 23.2613 153.837 23.9724 154.036 24.8827C154.264 25.7644 154.32 26.9307 154.207 28.3813L153.823 32.9893C153.794 33.5013 153.851 33.928 153.993 34.2693C154.164 34.5822 154.491 34.7387 154.975 34.7387ZM147.764 21.64C146.228 22.0667 145.176 22.2231 144.607 22.1093C144.066 21.9956 143.824 21.7111 143.881 21.256C143.91 20.8293 144.194 20.5591 144.735 20.4453C145.275 20.3031 146.285 20.4453 147.764 20.872V21.64ZM157.492 7.85866C156.98 8.39911 156.539 9.11022 156.169 9.992C155.828 10.8453 155.501 11.784 155.188 12.808C154.875 13.8036 154.52 14.8133 154.121 15.8373C153.752 16.8329 153.268 17.7573 152.671 18.6107C152.102 19.4356 151.376 20.104 150.495 20.616C149.613 21.0996 148.518 21.3271 147.209 21.2987L147.295 20.872C148.745 20.7298 149.897 20.2889 150.751 19.5493C151.632 18.8098 152.329 17.8853 152.841 16.776C153.353 15.6667 153.78 14.5147 154.121 13.32C154.491 12.0969 154.875 10.9591 155.273 9.90666C155.672 8.85422 156.198 8.00089 156.852 7.34666C157.336 6.89155 157.819 6.59289 158.303 6.45066C158.815 6.28 159.298 6.19466 159.753 6.19466C160.92 6.19466 161.801 6.52177 162.399 7.176C163.024 7.80177 163.323 8.61244 163.295 9.608C163.266 10.1484 163.124 10.7031 162.868 11.272C162.612 11.8409 162.228 12.3244 161.716 12.7227C161.232 13.1209 160.621 13.32 159.881 13.32C159.142 13.32 158.544 13.0924 158.089 12.6373C157.634 12.1538 157.407 11.5422 157.407 10.8027C157.435 10.12 157.677 9.43733 158.132 8.75466C158.616 8.04355 159.241 7.48889 160.009 7.09066C159.924 7.09066 159.839 7.07644 159.753 7.048C159.696 7.01955 159.597 7.00533 159.455 7.00533C159 7.03378 158.63 7.11911 158.345 7.26133C158.061 7.40355 157.776 7.60266 157.492 7.85866ZM170.096 32.4773C169.84 33.5013 169.726 34.2693 169.754 34.7813C169.783 35.2933 170.025 35.6347 170.48 35.8053C170.935 35.976 171.646 36.0898 172.613 36.1467L172.442 37C171.703 36.9431 170.75 36.9147 169.584 36.9147C168.417 36.8862 167.223 36.872 166 36.872C164.72 36.872 163.525 36.8862 162.416 36.9147C161.335 36.9147 160.439 36.9431 159.728 37L159.941 36.1467C160.88 36.0898 161.605 35.976 162.117 35.8053C162.657 35.6347 163.084 35.2933 163.397 34.7813C163.71 34.2693 163.994 33.5013 164.25 32.4773L169.882 11.3147C170.167 10.2622 170.281 9.49422 170.224 9.01067C170.167 8.49866 169.911 8.15733 169.456 7.98667C169.029 7.78755 168.332 7.67378 167.365 7.64533L167.578 6.792C168.261 6.82044 169.157 6.84889 170.266 6.87733C171.376 6.90578 172.57 6.92 173.85 6.92C175.073 6.92 176.254 6.90578 177.392 6.87733C178.529 6.84889 179.511 6.82044 180.336 6.792L180.122 7.64533C179.155 7.67378 178.401 7.78755 177.861 7.98667C177.321 8.15733 176.894 8.49866 176.581 9.01067C176.297 9.49422 176.012 10.2622 175.728 11.3147L170.096 32.4773ZM210.06 0.946664C210.971 0.946664 211.667 1.21689 212.151 1.75733C212.635 2.29778 212.876 2.93778 212.876 3.67733C212.876 4.47378 212.635 5.18489 212.151 5.81067C211.696 6.43644 211.056 6.94844 210.231 7.34666C209.435 7.77333 208.453 8.10044 207.287 8.328C206.121 8.55555 204.77 8.66933 203.234 8.66933C202.153 8.66933 201.015 8.61244 199.82 8.49866C198.626 8.38489 197.417 8.25689 196.194 8.11466C194.971 7.97244 193.762 7.84444 192.567 7.73066C191.372 7.61689 190.249 7.56 189.196 7.56C188.258 7.56 187.347 7.61689 186.466 7.73066C185.584 7.816 184.887 8.00089 184.375 8.28533C184.944 8.51289 185.413 8.91111 185.783 9.48C186.181 10.0489 186.38 10.7031 186.38 11.4427C186.38 12.2676 186.11 13.0071 185.57 13.6613C185.058 14.2871 184.347 14.6 183.436 14.6C182.583 14.6 181.929 14.3156 181.474 13.7467C181.019 13.1778 180.791 12.4951 180.791 11.6987C180.791 11.0444 180.962 10.3618 181.303 9.65066C181.673 8.91111 182.37 8.28533 183.394 7.77333C184.048 7.46044 184.745 7.23289 185.484 7.09066C186.224 6.94844 186.921 6.86311 187.575 6.83467C188.229 6.80622 188.741 6.792 189.111 6.792C190.846 6.792 192.524 6.87733 194.146 7.048C195.767 7.21866 197.36 7.38933 198.924 7.56C200.489 7.73066 202.039 7.816 203.575 7.816C204.77 7.816 205.765 7.75911 206.562 7.64533C207.387 7.50311 208.112 7.28978 208.738 7.00533L208.652 7.34666C208.283 7.00533 207.927 6.56444 207.586 6.024C207.273 5.45511 207.116 4.80089 207.116 4.06133C207.116 3.208 207.372 2.48266 207.884 1.88533C208.425 1.25955 209.15 0.946664 210.06 0.946664ZM194.53 7.60267C194.53 7.60267 194.715 7.61689 195.084 7.64533C195.483 7.67378 195.966 7.71644 196.535 7.77333C197.104 7.83022 197.673 7.88711 198.242 7.944C198.811 8.00089 199.28 8.04355 199.65 8.072C200.019 8.10044 200.204 8.11466 200.204 8.11466L193.89 32.0507C193.605 33.1031 193.491 33.9138 193.548 34.4827C193.634 35.0516 193.947 35.464 194.487 35.72C195.056 35.9476 195.923 36.0898 197.09 36.1467L196.919 37C196.066 36.9431 194.971 36.9147 193.634 36.9147C192.325 36.8862 190.96 36.872 189.538 36.872C188.144 36.872 186.807 36.8862 185.527 36.9147C184.247 36.9147 183.223 36.9431 182.455 37L182.626 36.1467C183.82 36.0898 184.745 35.9476 185.399 35.72C186.082 35.464 186.608 35.0516 186.978 34.4827C187.376 33.8853 187.731 33.0747 188.044 32.0507L194.53 7.60267ZM236.534 6.792C236.107 7.90133 235.666 9.25244 235.211 10.8453C234.756 12.4098 234.287 14.3298 233.803 16.6053H232.865C233.121 15.1547 233.22 13.9031 233.163 12.8507C233.135 11.7698 232.922 10.8596 232.523 10.12C231.983 9.096 231.243 8.34222 230.305 7.85866C229.394 7.37511 228.385 7.13333 227.275 7.13333C225.853 7.13333 224.459 7.53155 223.094 8.328C221.757 9.12444 220.52 10.2196 219.382 11.6133C218.244 13.0071 217.234 14.6 216.353 16.392C215.499 18.184 214.831 20.0898 214.347 22.1093C213.864 24.1004 213.622 26.0916 213.622 28.0827C213.622 30.9271 214.148 33.0462 215.201 34.44C216.282 35.8053 217.732 36.488 219.553 36.488C220.634 36.488 221.8 36.232 223.051 35.72C224.303 35.208 225.384 34.4684 226.294 33.5013C227.062 32.7049 227.716 31.7947 228.257 30.7707C228.826 29.7467 229.451 28.4098 230.134 26.76H231.073C230.362 29.3484 229.807 31.4391 229.409 33.032C229.039 34.5964 228.754 35.9191 228.555 37H227.617C227.702 36.4027 227.745 35.9191 227.745 35.5493C227.745 34.9236 227.631 34.568 227.403 34.4827C227.176 34.3973 226.82 34.5111 226.337 34.824C225.597 35.336 224.815 35.8053 223.99 36.232C223.165 36.6302 222.269 36.9573 221.302 37.2133C220.363 37.4693 219.297 37.5973 218.102 37.5973C214.49 37.5973 211.759 36.7013 209.91 34.9093C208.061 33.1173 207.137 30.5573 207.137 27.2293C207.137 25.2382 207.45 23.2471 208.075 21.256C208.73 19.2649 209.64 17.3733 210.806 15.5813C212.001 13.7609 213.409 12.1538 215.03 10.76C216.68 9.33778 218.5 8.22844 220.491 7.432C222.511 6.60711 224.673 6.19466 226.977 6.19466C228.171 6.19466 229.153 6.33689 229.921 6.62133C230.689 6.87733 231.343 7.21867 231.883 7.64533C232.424 8.04355 232.893 8.48444 233.291 8.968C233.69 9.39467 234.074 9.45155 234.443 9.13866C234.813 8.79733 235.211 8.01511 235.638 6.792H236.534ZM243.796 22.2373L244.094 21.384H259.156L258.814 22.2373H243.796ZM260.35 11.3147C260.635 10.2622 260.749 9.49422 260.692 9.01067C260.663 8.49866 260.421 8.15733 259.966 7.98667C259.511 7.78755 258.8 7.67378 257.833 7.64533L258.046 6.792C258.786 6.82044 259.725 6.84889 260.862 6.87733C262 6.90578 263.152 6.92 264.318 6.92C265.627 6.92 266.85 6.90578 267.988 6.87733C269.154 6.84889 270.093 6.82044 270.804 6.792L270.59 7.64533C269.623 7.67378 268.869 7.78755 268.329 7.98667C267.789 8.15733 267.362 8.49866 267.049 9.01067C266.765 9.49422 266.48 10.2622 266.196 11.3147L260.564 32.4773C260.308 33.5013 260.194 34.2693 260.222 34.7813C260.251 35.2933 260.493 35.6347 260.948 35.8053C261.403 35.976 262.114 36.0898 263.081 36.1467L262.91 37C262.228 36.9431 261.303 36.9147 260.137 36.9147C258.999 36.8862 257.776 36.872 256.468 36.872C255.301 36.872 254.149 36.8862 253.012 36.9147C251.874 36.9147 250.921 36.9431 250.153 37L250.324 36.1467C251.291 36.0898 252.045 35.976 252.585 35.8053C253.125 35.6347 253.552 35.2933 253.865 34.7813C254.178 34.2693 254.462 33.5013 254.718 32.4773L260.35 11.3147ZM242.729 32.4773C242.473 33.5013 242.359 34.2693 242.388 34.7813C242.416 35.2933 242.658 35.6347 243.113 35.8053C243.568 35.976 244.279 36.0898 245.246 36.1467L245.076 37C244.336 36.9431 243.397 36.9147 242.26 36.9147C241.122 36.8862 239.97 36.872 238.804 36.872C237.495 36.872 236.272 36.8862 235.134 36.9147C234.025 36.9147 233.101 36.9431 232.361 37L232.574 36.1467C233.513 36.0898 234.238 35.976 234.75 35.8053C235.291 35.6347 235.717 35.2933 236.03 34.7813C236.343 34.2693 236.628 33.5013 236.884 32.4773L242.516 11.3147C242.8 10.2622 242.914 9.49422 242.857 9.01067C242.8 8.49866 242.544 8.15733 242.089 7.98667C241.662 7.78755 240.965 7.67378 239.998 7.64533L240.212 6.792C240.894 6.82044 241.805 6.84889 242.942 6.87733C244.109 6.90578 245.346 6.92 246.654 6.92C247.821 6.92 248.958 6.90578 250.068 6.87733C251.205 6.84889 252.173 6.82044 252.969 6.792L252.756 7.64533C251.789 7.67378 251.035 7.78755 250.494 7.98667C249.954 8.15733 249.527 8.49866 249.214 9.01067C248.93 9.49422 248.645 10.2622 248.361 11.3147L242.729 32.4773ZM276.634 22.2373L276.847 21.384H284.911L284.698 22.2373H276.634ZM281.071 21.384C281.896 21.384 282.607 21.2276 283.204 20.9147C283.83 20.5733 284.356 20.1324 284.783 19.592C285.238 19.0516 285.622 18.4827 285.935 17.8853C286.276 17.2596 286.561 16.6622 286.788 16.0933H287.727C287.272 17.5156 286.945 18.6249 286.746 19.4213C286.547 20.2178 286.333 21.0142 286.106 21.8107C285.992 22.3227 285.864 22.8204 285.722 23.304C285.608 23.7876 285.48 24.3564 285.338 25.0107C285.224 25.6649 285.067 26.504 284.868 27.528H283.887C283.944 26.9307 283.972 26.3191 283.972 25.6933C283.972 25.0676 283.873 24.4987 283.674 23.9867C283.503 23.4747 283.176 23.0622 282.692 22.7493C282.237 22.408 281.569 22.2373 280.687 22.2373L281.071 21.384ZM292.42 14.472C292.619 12.7938 292.619 11.4711 292.42 10.504C292.221 9.50844 291.78 8.81155 291.098 8.41333C290.415 7.98666 289.391 7.77333 288.026 7.77333H286.106C285.139 7.77333 284.385 7.85866 283.844 8.02933C283.332 8.17155 282.92 8.49866 282.607 9.01067C282.323 9.49422 282.038 10.2622 281.754 11.3147L276.079 32.4773C275.823 33.5013 275.709 34.2693 275.738 34.7813C275.766 35.2933 276.008 35.6347 276.463 35.8053C276.918 35.9476 277.629 36.0187 278.596 36.0187H280.687C282.308 36.0187 283.645 35.7769 284.698 35.2933C285.75 34.8098 286.675 34.0276 287.471 32.9467C288.267 31.8373 289.05 30.344 289.818 28.4667H290.756C290.614 28.8364 290.458 29.2916 290.287 29.832C290.145 30.3724 290.003 30.9413 289.86 31.5387C289.718 32.0791 289.533 32.8613 289.306 33.8853C289.078 34.8809 288.879 35.9191 288.708 37C287.258 36.9431 285.622 36.9147 283.802 36.9147C282.01 36.8862 280.403 36.872 278.98 36.872C278.298 36.872 277.43 36.872 276.378 36.872C275.325 36.872 274.173 36.8862 272.922 36.9147C271.699 36.9147 270.461 36.9289 269.21 36.9573C267.958 36.9573 266.778 36.9716 265.668 37L265.839 36.1467C266.806 36.0898 267.56 35.976 268.1 35.8053C268.641 35.6347 269.067 35.2933 269.38 34.7813C269.693 34.2693 269.978 33.5013 270.234 32.4773L275.908 11.3147C276.193 10.2622 276.307 9.49422 276.25 9.01067C276.221 8.49866 275.979 8.15733 275.524 7.98667C275.098 7.78755 274.401 7.67378 273.434 7.64533L273.647 6.792C274.756 6.82044 275.937 6.84889 277.188 6.87733C278.44 6.87733 279.677 6.89155 280.9 6.92C282.152 6.92 283.304 6.92 284.356 6.92C285.409 6.92 286.276 6.92 286.959 6.92C288.239 6.92 289.675 6.92 291.268 6.92C292.861 6.89155 294.312 6.84889 295.62 6.792C295.251 7.78755 294.923 8.712 294.639 9.56533C294.383 10.3902 294.17 11.144 293.999 11.8267C293.857 12.3387 293.729 12.8364 293.615 13.32C293.53 13.7751 293.459 14.1591 293.402 14.472H292.42ZM315.534 37.2133L304.995 12.04C304.995 12.04 304.967 12.0116 304.91 11.9547C304.881 11.8693 304.839 11.784 304.782 11.6987C304.725 11.5849 304.682 11.4996 304.654 11.4427C304.625 11.3573 304.611 11.3147 304.611 11.3147C304.839 10.2622 304.91 9.49422 304.824 9.01067C304.767 8.49866 304.483 8.15733 303.971 7.98667C303.487 7.78755 302.691 7.67378 301.582 7.64533L301.795 6.792C302.25 6.82044 302.805 6.84889 303.459 6.87733C304.142 6.90578 304.853 6.92 305.592 6.92C306.929 6.92 308.081 6.87733 309.048 6.792L317.752 28.6373C317.752 28.6373 317.724 28.8507 317.667 29.2773C317.61 29.6756 317.525 30.2018 317.411 30.856C317.326 31.4818 317.226 32.1644 317.112 32.904C316.999 33.6436 316.885 34.3404 316.771 34.9947C316.686 35.6489 316.615 36.1893 316.558 36.616C316.501 37.0142 316.472 37.2133 316.472 37.2133H315.534ZM328.59 5.64C327.822 5.66844 327.139 5.896 326.542 6.32266C325.973 6.72089 325.475 7.24711 325.048 7.90133C323.74 9.83555 322.403 13.2347 321.038 18.0987C319.672 22.9627 318.151 29.3342 316.472 37.2133L315.875 36.0187C316.302 34.1129 316.757 32.0649 317.24 29.8747C317.724 27.656 318.236 25.4373 318.776 23.2187C319.345 21 319.914 18.8809 320.483 16.8613C321.08 14.8418 321.692 13.0356 322.318 11.4427C322.972 9.82133 323.626 8.52711 324.28 7.56C324.821 6.792 325.461 6.152 326.2 5.64C326.94 5.09955 327.836 4.82933 328.888 4.82933C330.083 4.82933 330.965 5.14222 331.534 5.768C332.103 6.36533 332.387 7.09066 332.387 7.944C332.387 8.93955 332.074 9.80711 331.448 10.5467C330.823 11.2578 329.998 11.6133 328.974 11.6133C328.149 11.6133 327.523 11.3858 327.096 10.9307C326.698 10.4756 326.499 9.94933 326.499 9.352C326.499 8.52711 326.741 7.80177 327.224 7.176C327.736 6.55022 328.362 6.09511 329.102 5.81067C329.016 5.75378 328.931 5.71111 328.846 5.68266C328.789 5.65422 328.703 5.64 328.59 5.64ZM293.987 39.3467C294.783 39.3182 295.466 39.0907 296.035 38.664C296.632 38.2658 297.159 37.7253 297.614 37.0427C298.439 35.7342 299.263 33.6862 300.088 30.8987C300.942 28.1111 301.795 24.7404 302.648 20.7867C303.53 16.8329 304.412 12.4951 305.294 7.77333L306.019 8.66933C305.564 11.0018 305.08 13.3769 304.568 15.7947C304.085 18.184 303.587 20.5307 303.075 22.8347C302.563 25.1102 302.037 27.2293 301.496 29.192C300.956 31.1547 300.415 32.8613 299.875 34.312C299.335 35.7342 298.808 36.7867 298.296 37.4693C297.784 38.152 297.173 38.7636 296.462 39.304C295.779 39.8729 294.869 40.1573 293.731 40.1573C292.508 40.1573 291.612 39.8444 291.043 39.2187C290.474 38.6213 290.19 37.8818 290.19 37C290.19 36.0329 290.503 35.1938 291.128 34.4827C291.754 33.7431 292.579 33.3733 293.603 33.3733C294.456 33.3733 295.082 33.6009 295.48 34.056C295.879 34.5111 296.078 35.0373 296.078 35.6347C296.078 36.4596 295.822 37.1849 295.31 37.8107C294.826 38.4364 294.229 38.8916 293.518 39.176C293.575 39.2329 293.646 39.2756 293.731 39.304C293.816 39.3324 293.902 39.3467 293.987 39.3467Z"
          fill="#474747"
        />
      </svg>